<svg width="36" height="29" viewBox="0 0 36 29" fill="none" xmlns="http://www.w3.org/2000/svg">
<g filter="url(#filter0_i_5_75)">
<path d="M6.24391 2.55C4.29391 4.11 2.92391 7.3 3.13391 9.38C3.16391 9.59 3.33391 10.49 3.66391 10.46C3.83391 10.44 4.10391 10.18 4.20391 10.06C4.87391 9.29 5.36391 8.41 5.64391 7.46C5.76391 7.06 5.99391 6.41 6.51391 6.36C6.80391 6.33 7.03391 6.46 7.06391 6.72C7.18391 7.88 5.20391 11.2 3.76391 11.35C2.70391 11.46 2.20391 10.33 2.12391 9.54C2.09391 9.33 2.09391 9.1 2.11391 8.88C2.27391 6.27 3.23391 4.08 5.03391 2.02C5.49391 1.49 6.27391 0.829999 7.05391 0.749999C7.96391 0.66 8.60391 1.22 8.69391 2.02C8.77391 2.79 8.10391 4.8 7.11391 4.91C6.86391 4.93 6.63391 4.82 6.60391 4.58C6.57391 4.31 7.16391 3.13 7.09391 2.43C7.04391 1.79 6.59391 2.27 6.24391 2.55ZM11.0557 2.33C11.7357 1.6 12.8057 0.839999 13.8757 0.839999C14.7757 0.839999 15.1557 1.54 15.1557 2.31C15.1557 4.23 12.9157 7.35 12.9057 7.77C12.9057 7.87 12.9457 7.95 12.9457 8.04C12.9457 8.45 12.3657 8.44 12.1157 8.76C11.4957 9.61 10.3657 11.11 9.1757 11.11C7.8457 11.11 7.6257 9.64 7.6257 8.68C7.6257 6.83 8.5357 3.42 10.0057 2.1C10.1257 1.99 10.2757 1.9 10.4457 1.9C10.7557 1.9 10.8757 2.14 11.0557 2.33ZM12.2557 2.76C11.3857 3.65 10.8057 5.02 10.8057 5.99C10.8057 6.62 11.2757 7.06 11.8757 7.25C12.4857 6.56 13.3757 4.9 13.7957 3.59C14.3857 1.81 13.5357 1.45 12.2557 2.76ZM10.2757 9.38C10.6157 9.04 10.9057 8.61 11.2057 8.2C10.0757 7.76 9.5057 6.94 9.4957 5.78C9.2557 6.09 8.9557 8.41 8.9557 8.88C8.9557 10.05 9.4257 10.24 10.2757 9.38ZM16.5198 4.11C16.0698 4.76 15.7198 5.59 15.2398 6.19C15.1698 6.27 15.0698 6.34 14.9498 6.34C14.7398 6.34 14.5098 6.17 14.4898 5.94C14.3798 4.77 17.7098 0.34 18.6998 0.34C19.0798 0.34 19.4398 0.66 19.4898 1.05C19.6298 2.42 16.2898 10.11 15.8298 11.58C15.8998 11.57 15.9798 11.56 16.0298 11.54C17.4198 11.15 18.8198 10.89 20.2998 10.89C20.8398 10.89 22.3798 10.89 22.4698 11.7C22.4998 12 22.2898 12.24 22.0098 12.24C21.6998 12.24 21.6798 12.02 21.3198 12.02C19.3998 12.02 17.4798 12.58 15.6998 13.13C15.2298 13.28 15.5098 13.52 14.8698 13.52C14.5898 13.52 14.1298 13.98 13.7798 13.98C13.4998 13.98 13.2598 13.74 13.2298 13.45C13.1598 12.81 14.1298 12.56 14.3798 11.93C15.2098 9.89 16.7098 6.03 17.3498 4.33C18.4198 1.54 17.7398 2.02 16.5198 4.11ZM22.6084 2.33C23.2884 1.6 24.3584 0.839999 25.4284 0.839999C26.3284 0.839999 26.7084 1.54 26.7084 2.31C26.7084 4.23 24.4684 7.35 24.4584 7.77C24.4584 7.87 24.4984 7.95 24.4984 8.04C24.4984 8.45 23.9184 8.44 23.6684 8.76C23.0484 9.61 21.9184 11.11 20.7284 11.11C19.3984 11.11 19.1784 9.64 19.1784 8.68C19.1784 6.83 20.0884 3.42 21.5584 2.1C21.6784 1.99 21.8284 1.9 21.9984 1.9C22.3084 1.9 22.4284 2.14 22.6084 2.33ZM23.8084 2.76C22.9384 3.65 22.3584 5.02 22.3584 5.99C22.3584 6.62 22.8284 7.06 23.4284 7.25C24.0384 6.56 24.9284 4.9 25.3484 3.59C25.9384 1.81 25.0884 1.45 23.8084 2.76ZM21.8284 9.38C22.1684 9.04 22.4584 8.61 22.7584 8.2C21.6284 7.76 21.0584 6.94 21.0484 5.78C20.8084 6.09 20.5084 8.41 20.5084 8.88C20.5084 10.05 20.9784 10.24 21.8284 9.38ZM28.5426 8.34L28.5626 8.43H29.4426C29.9226 8.43 31.1926 8.33 31.1926 9.05C31.1926 9.54 30.5926 9.68 30.2126 9.68C29.3926 9.68 28.5526 9.62 27.7226 9.59C27.5826 10.49 27.4126 11.45 27.4126 12.37C27.4126 12.7 27.6926 12.65 27.6926 12.91C27.6926 13.15 27.4626 13.29 27.2426 13.29C26.6126 13.29 26.5726 12.3 26.5726 11.85C26.5726 11.07 26.7426 10.28 26.7426 9.51C26.7426 9.28 26.5926 9.12 26.5926 8.93C26.5926 8.87 26.9426 8.07 27.0026 7.74C27.1226 7.04 27.5426 5.48 27.5426 4.87L27.5326 4.77C27.2026 5.05 26.4126 6.19 26.0426 6.19C25.8026 6.19 25.5826 5.99 25.5826 5.75C25.5826 4.55 28.2426 2.77 28.7626 1.43C28.8126 1.3 28.8926 1.19 28.9826 1.09C29.0826 0.969999 29.2226 0.86 29.3826 0.86C29.6326 0.86 29.7626 1.08 29.8726 1.27C30.6526 0.919999 31.5526 0.4 32.4226 0.4C32.9826 0.4 33.4126 0.85 33.4126 1.4C33.4126 3.08 29.7026 7.18 28.5426 8.34ZM30.4726 2.43C30.1326 2.63 29.7926 2.85 29.4826 3.05C29.2926 3.18 29.2226 3.28 29.1626 3.5C29.0426 3.89 28.4326 6.16 28.4326 6.41C29.2426 5.53 30.0126 4.61 30.7026 3.63C31.4726 2.54 32.3726 1.3 30.4726 2.43ZM3.79984 18.33C4.47984 17.6 5.54984 16.84 6.61984 16.84C7.51984 16.84 7.89984 17.54 7.89984 18.31C7.89984 20.23 5.65984 23.35 5.64984 23.77C5.64984 23.87 5.68984 23.95 5.68984 24.04C5.68984 24.45 5.10984 24.44 4.85984 24.76C4.23984 25.61 3.10984 27.11 1.91984 27.11C0.589844 27.11 0.369844 25.64 0.369844 24.68C0.369844 22.83 1.27984 19.42 2.74984 18.1C2.86984 17.99 3.01984 17.9 3.18984 17.9C3.49984 17.9 3.61984 18.14 3.79984 18.33ZM4.99984 18.76C4.12984 19.65 3.54984 21.02 3.54984 21.99C3.54984 22.62 4.01984 23.06 4.61984 23.25C5.22984 22.56 6.11984 20.9 6.53984 19.59C7.12984 17.81 6.27984 17.45 4.99984 18.76ZM3.01984 25.38C3.35984 25.04 3.64984 24.61 3.94984 24.2C2.81984 23.76 2.24984 22.94 2.23984 21.78C1.99984 22.09 1.69984 24.41 1.69984 24.88C1.69984 26.05 2.16984 26.24 3.01984 25.38ZM11.694 24.01C12.264 22.41 13.304 19.17 14.224 17.89C14.394 17.67 14.594 17.57 14.874 17.57C15.204 17.57 15.444 17.84 15.444 18.15C15.444 18.61 15.084 19.57 14.884 19.99C14.154 21.54 13.444 23.1 12.874 24.71C12.624 25.42 12.534 26.33 12.214 26.99C12.084 27.24 11.884 27.35 11.604 27.35C11.334 27.35 11.154 27.2 11.044 26.97C10.994 26.88 10.974 26.79 10.954 26.69C10.744 25.73 10.544 24.77 10.344 23.81C10.064 22.41 10.004 21.03 9.90398 19.61L9.76398 19.82C8.31398 22.19 7.45398 24.85 6.55398 27.44C6.45398 27.72 6.35398 27.84 6.03398 27.84C5.73398 27.84 5.62398 27.57 5.62398 27.32C5.62398 25.4 8.12398 20.56 9.03398 18.71C9.31398 18.15 9.54398 17.44 9.93398 16.95C10.064 16.8 10.234 16.69 10.444 16.69C10.824 16.69 11.084 16.89 11.154 17.26C11.174 17.4 11.174 17.54 11.184 17.68C11.264 19.95 11.254 21.51 11.634 23.81C11.644 23.88 11.684 23.95 11.694 24.01ZM21.5973 23.01L21.6873 23.03C22.9073 21.23 24.1573 19.5 25.5773 17.85C25.9773 17.39 26.3273 16.81 26.7573 16.39C26.9173 16.23 27.1273 16.13 27.3573 16.13C27.7373 16.13 28.0973 16.43 28.0973 16.82C28.0973 17.2 27.1973 18.79 26.9873 19.28C26.2073 21.08 25.2973 23.91 25.2973 25.89C25.2973 26.21 25.5873 26.33 25.5873 26.61C25.5873 26.93 25.2673 27.21 24.9573 27.21C23.9473 27.21 23.8573 25.5 23.8573 24.76C23.8573 23.57 24.1673 22.45 24.4673 21.3C23.8173 22.01 22.3573 24.66 21.4773 24.66C20.2773 24.66 20.3073 21.59 20.2473 20.75L20.1573 20.83C19.7073 21.96 18.2173 25.94 18.2173 26.98C18.2173 27.2 18.4473 27.23 18.4473 27.43C18.4473 27.68 17.9073 28.04 17.6673 28.04C17.1773 28.04 17.0873 27.51 17.0873 27.13C17.0873 25.21 19.3573 18.65 20.3373 17.15C20.4673 16.95 20.6773 16.8 20.9273 16.8C21.3973 16.8 21.6273 17.17 21.6273 17.6C21.6273 19.01 21.5173 20.43 21.5173 21.84C21.5173 22.23 21.5673 22.62 21.5973 23.01ZM28.2766 25.75C29.4066 25.36 31.2866 24.61 32.4266 24.61C32.8066 24.61 33.1566 24.81 33.1566 25.22C33.1566 25.39 33.0766 25.53 32.9666 25.65C32.4966 26.12 28.9866 27.13 28.1966 27.13C27.5166 27.13 26.8866 26.7 26.8866 25.96C26.8866 24.9 27.4266 23.55 27.7866 22.54C27.6266 22.63 27.4466 22.74 27.2666 22.74C26.9866 22.74 26.7266 22.54 26.7266 22.26C26.7266 21.59 28.2566 21.29 28.4366 20.95C28.5666 20.71 29.3866 18.94 29.3866 18.81C28.9866 18.91 28.5666 19.07 28.1466 19.07C27.8666 19.07 27.6466 18.81 27.6466 18.54C27.6466 17.26 33.6766 16.17 34.4966 16.17C34.9866 16.17 35.7766 16.28 35.7766 16.91C35.7766 17.17 35.6166 17.35 35.3766 17.43C34.0766 17.86 32.5966 17.96 31.2566 18.25C31.1166 18.28 31.0166 18.34 30.9566 18.47C30.8066 18.79 30.0966 20.39 30.0566 20.64C30.6666 20.55 31.2466 20.49 31.8666 20.49C32.1366 20.49 32.5666 20.66 32.5666 20.98C32.5666 21.43 32.1766 21.46 31.8166 21.46C31.0966 21.46 30.2866 21.69 29.6066 21.93C29.2366 22.06 28.3066 25.23 28.2766 25.75Z" fill="white"/>
</g>
<defs>
<filter id="filter0_i_5_75" x="0.369873" y="0.339966" width="35.4067" height="29.7001" filterUnits="userSpaceOnUse" color-interpolation-filters="sRGB">
<feFlood flood-opacity="0" result="BackgroundImageFix"/>
<feBlend mode="normal" in="SourceGraphic" in2="BackgroundImageFix" result="shape"/>
<feColorMatrix in="SourceAlpha" type="matrix" values="0 0 0 0 0 0 0 0 0 0 0 0 0 0 0 0 0 0 127 0" result="hardAlpha"/>
<feOffset dy="2"/>
<feGaussianBlur stdDeviation="1"/>
<feComposite in2="hardAlpha" operator="arithmetic" k2="-1" k3="1"/>
<feColorMatrix type="matrix" values="0 0 0 0 0.845833 0 0 0 0 0.845833 0 0 0 0 0.845833 0 0 0 1 0"/>
<feBlend mode="normal" in2="shape" result="effect1_innerShadow_5_75"/>
</filter>
</defs>
</svg>
